<svg width="72" height="72" viewBox="0 0 72 72" fill="none" xmlns="http://www.w3.org/2000/svg">
<path d="M5.15725 42.107C5.84825 42.3954 6.65938 42.2418 7.20075 41.7005L14.1514 34.7499H19V25.3749C19 20.2058 23.2059 15.9999 28.375 15.9999H49.25V10.3749C49.25 7.26825 46.7316 4.74988 43.625 4.74988H9.625C6.51837 4.74988 4 7.26825 4 10.3749V40.3749C4 41.1329 4.45588 41.8178 5.15725 42.107Z" fill="#333335"/>
<path opacity="0.2" d="M62.375 31.7499H28.375C25.2733 31.7499 22.75 34.2731 22.75 37.3749V56.1249C22.75 59.2266 25.2733 61.7499 28.375 61.7499H57.8486L64.7993 68.7005C65.3405 69.2418 66.1517 69.3954 66.8428 69.107C67.544 68.8178 68 68.1329 68 67.3749V37.3749C68 34.2731 65.4767 31.7499 62.375 31.7499ZM53 52.3749H37.75C36.7136 52.3749 35.875 51.5363 35.875 50.4999C35.875 49.4635 36.7136 48.6249 37.75 48.6249H53C54.0364 48.6249 54.875 49.4635 54.875 50.4999C54.875 51.5363 54.0364 52.3749 53 52.3749ZM56.75 44.8749H34C32.9636 44.8749 32.125 44.0363 32.125 42.9999C32.125 41.9635 32.9636 41.1249 34 41.1249H56.75C57.7864 41.1249 58.625 41.9635 58.625 42.9999C58.625 44.0363 57.7864 44.8749 56.75 44.8749Z" fill="#747478"/>
<path opacity="0.4" d="M62.375 25.7499H28.375C25.2733 25.7499 22.75 28.2731 22.75 31.3749V50.1249C22.75 53.2266 25.2733 55.7499 28.375 55.7499H57.8486L64.7993 62.7005C65.3405 63.2418 66.1517 63.3954 66.8428 63.107C67.544 62.8178 68 62.1329 68 61.3749V31.3749C68 28.2731 65.4767 25.7499 62.375 25.7499ZM53 46.3749H37.75C36.7136 46.3749 35.875 45.5363 35.875 44.4999C35.875 43.4635 36.7136 42.6249 37.75 42.6249H53C54.0364 42.6249 54.875 43.4635 54.875 44.4999C54.875 45.5363 54.0364 46.3749 53 46.3749ZM56.75 38.8749H34C32.9636 38.8749 32.125 38.0363 32.125 36.9999C32.125 35.9635 32.9636 35.1249 34 35.1249H56.75C57.7864 35.1249 58.625 35.9635 58.625 36.9999C58.625 38.0363 57.7864 38.8749 56.75 38.8749Z" fill="#747478"/>
<path d="M62.375 19.7499H28.375C25.2733 19.7499 22.75 22.2731 22.75 25.3749V44.1249C22.75 47.2266 25.2733 49.7499 28.375 49.7499H57.8486L64.7993 56.7005C65.3405 57.2418 66.1517 57.3954 66.8428 57.107C67.544 56.8178 68 56.1329 68 55.3749V25.3749C68 22.2731 65.4767 19.7499 62.375 19.7499ZM53 40.3749H37.75C36.7136 40.3749 35.875 39.5363 35.875 38.4999C35.875 37.4635 36.7136 36.6249 37.75 36.6249H53C54.0364 36.6249 54.875 37.4635 54.875 38.4999C54.875 39.5363 54.0364 40.3749 53 40.3749ZM56.75 32.8749H34C32.9636 32.8749 32.125 32.0363 32.125 30.9999C32.125 29.9635 32.9636 29.1249 34 29.1249H56.75C57.7864 29.1249 58.625 29.9635 58.625 30.9999C58.625 32.0363 57.7864 32.8749 56.75 32.8749Z" fill="#8E8E93"/>
</svg>
