<svg width="343" height="69" viewBox="0 0 343 69" fill="none" xmlns="http://www.w3.org/2000/svg">
<path d="M22.9711 23.2755H27.5596V16.3842C27.5596 15.1175 28.5888 14.0871 29.8538 14.0871H39.1329C42.928 14.0871 46.0156 10.9956 46.0156 7.19574C46.0156 3.39586 42.928 0.304413 39.1329 0.304413H22.9711V4.89863H39.1329C40.3979 4.89863 41.4271 5.92911 41.4271 7.19574C41.4271 8.46236 40.3979 9.49285 39.1329 9.49285H29.8538C26.0587 9.49285 22.9711 12.5843 22.9711 16.3842V23.2755Z" fill="#818186"/>
<path d="M56.3907 7.19574V16.3842C56.3907 17.6508 55.3615 18.6813 54.0964 18.6813H43.7214V23.2755H54.0964C57.8916 23.2755 60.9792 20.184 60.9792 16.3842V7.19574C60.9792 5.92911 62.0084 4.89863 63.2734 4.89863H73.6485V0.304413H63.2734C59.4783 0.304413 56.3907 3.39586 56.3907 7.19574Z" fill="#818186"/>
<path d="M94.3988 14.0871H78.237V9.49285H94.3988C95.6639 9.49285 96.6931 8.46236 96.6931 7.19574C96.6931 5.92911 95.6639 4.89863 94.3988 4.89863H78.237V0.304413H94.3988C98.194 0.304413 101.282 3.39586 101.282 7.19574C101.282 8.95908 100.617 10.5699 99.5247 11.79C100.617 13.01 101.282 14.6208 101.282 16.3842C101.282 20.184 98.194 23.2755 94.3988 23.2755H78.237V18.6813H94.3988C95.6639 18.6813 96.6931 17.6508 96.6931 16.3842C96.6931 15.1175 95.6639 14.0871 94.3988 14.0871Z" fill="#818186"/>
<path d="M148.768 0.304413H132.606V4.89863H148.768C150.033 4.89863 151.062 5.92911 151.062 7.19574C151.062 8.46236 150.033 9.49285 148.768 9.49285H139.489C135.693 9.49285 132.606 12.5843 132.606 16.3842V23.2755H137.194V16.3842C137.194 15.1175 138.223 14.0871 139.489 14.0871H148.768C152.563 14.0871 155.65 10.9956 155.65 7.19574C155.65 3.39586 152.563 0.304413 148.768 0.304413Z" fill="#818186"/>
<path d="M172.908 0.304413C169.113 0.304413 166.025 3.39586 166.025 7.19574V16.3842C166.025 17.6508 164.996 18.6813 163.731 18.6813H153.356V23.2755H163.731C167.526 23.2755 170.614 20.184 170.614 16.3842V7.19574C170.614 5.92911 171.643 4.89863 172.908 4.89863H183.283V0.304413H172.908Z" fill="#818186"/>
<path d="M206.328 14.0868V4.89863C206.328 2.36538 204.269 0.304413 201.739 0.304413C200.87 0.304413 200.024 0.549439 199.291 1.01284L184.761 10.2013C183.42 11.0486 182.62 12.5011 182.62 14.0871C182.62 16.6203 184.679 18.6813 187.209 18.6813H201.739V23.2755H206.328V18.6813H210.916V14.0871L206.328 14.0868ZM201.739 14.0866L187.211 14.0857L201.739 4.89863V14.0866Z" fill="#818186"/>
<path d="M258.402 0.304413H242.24V4.89863H258.402C259.667 4.89863 260.697 5.92911 260.697 7.19574C260.697 8.46236 259.667 9.49284 258.402 9.49284H249.123C245.328 9.49284 242.24 12.5843 242.24 16.3842V23.2755H246.829V16.3842C246.829 15.1175 247.858 14.0871 249.123 14.0871H258.402C262.197 14.0871 265.285 10.9956 265.285 7.19574C265.285 3.39586 262.197 0.304413 258.402 0.304413Z" fill="#818186"/>
<path d="M282.543 0.304413C278.748 0.304413 275.66 3.39586 275.66 7.19574V16.3842C275.66 17.6508 274.631 18.6813 273.366 18.6813H262.991V23.2755H273.366C277.161 23.2755 280.249 20.184 280.249 16.3842V7.19574C280.249 5.92911 281.278 4.89863 282.543 4.89863H292.918V0.304413H282.543Z" fill="#818186"/>
<path d="M296.014 0.304413H319.652V4.84785H300.818V8.40767C300.818 9.30369 301.281 9.75881 301.702 9.98814C301.993 10.1407 302.317 10.2183 302.645 10.2139H313.467C314.675 10.2092 315.868 10.4695 316.966 10.9766C318.664 11.766 320.551 13.3766 320.551 16.6283C320.551 23.023 314.366 23.2755 314.366 23.2755H296.014V19.0313H313.299C314.644 19.0313 315.733 17.9414 315.733 16.5968C315.733 15.2523 314.644 14.1624 313.299 14.1624H300.124C295.915 14.1624 296.014 10.7383 296.014 10.7383V0.304413Z" fill="#818186"/>
<path d="M167.669 50.5381L180.704 68.1854L183.155 68.1875V46.2341H180.706V64.2657L167.404 46.2206L165.224 46.2165V68.1709H167.669V50.5381Z" fill="#818186"/>
<path d="M152.507 45.7245C146.324 45.7245 142.003 50.446 142.003 57.205C142.003 63.975 146.324 68.6956 152.507 68.6956C158.683 68.6956 162.99 63.975 162.99 57.205C162.99 50.446 158.683 45.7245 152.507 45.7245ZM152.507 66.3694C147.798 66.3694 144.496 62.6008 144.496 57.205C144.496 51.8141 147.798 48.0449 152.507 48.0449C157.209 48.0449 160.49 51.8141 160.49 57.205C160.49 62.6008 157.209 66.3694 152.507 66.3694Z" fill="#818186"/>
<path d="M201.298 48.3672V46.2196H185.906V68.1895H201.45V66.0403H188.372V57.9165H200.476V55.7673H188.372V48.3672H201.298Z" fill="#818186"/>
<path d="M123.916 45.8187C123.061 45.9256 121.96 46.1821 121.266 46.4529C120.495 46.745 119.549 47.2153 119.549 47.308C119.549 47.365 119.717 47.4149 119.991 47.4434C120.972 47.5574 122.794 48.3341 124.442 49.3245C124.841 49.5668 125.234 49.7663 125.304 49.7663C125.381 49.7663 125.767 49.5668 126.159 49.3245C127.099 48.7473 128.648 47.9849 129.363 47.7426C129.685 47.6357 130.19 47.5146 130.491 47.4647C130.856 47.4149 131.045 47.3507 131.045 47.2937C131.045 47.0871 129.412 46.3816 128.276 46.0966C126.783 45.719 125.409 45.6335 123.916 45.8187Z" fill="#818186"/>
<path d="M117.137 49.1393C115.266 51.0774 114.249 53.1795 113.906 55.873C113.745 57.1271 113.787 58.1959 114.053 59.564C114.312 60.8823 114.908 62.3644 115.609 63.4118C116.072 64.1102 116.149 64.103 116.205 63.3548C116.422 60.5474 118.567 56.6924 122.136 52.7306C122.444 52.3814 122.703 52.0536 122.703 52.0109C122.703 51.9111 121.638 50.8565 120.853 50.1725C119.801 49.2604 118.434 48.4124 118.035 48.4124C117.881 48.4124 117.684 48.5763 117.137 49.1393Z" fill="#818186"/>
<path d="M132.048 48.6191C131.157 49.0537 129.959 49.9658 128.802 51.0988C128.339 51.5477 127.961 51.9681 127.961 52.0251C127.961 52.0821 128.304 52.5168 128.725 52.9942C131.753 56.4216 133.674 59.6923 134.27 62.4285C134.347 62.7777 134.41 63.2551 134.41 63.4974C134.41 63.8964 134.424 63.9463 134.543 63.9463C134.704 63.9463 135.342 62.9487 135.742 62.058C136.555 60.2837 136.842 58.8087 136.772 56.7708C136.702 54.4122 136.071 52.4812 134.774 50.6285C134.179 49.7734 132.868 48.4124 132.643 48.4124C132.552 48.4124 132.286 48.5051 132.048 48.6191Z" fill="#818186"/>
<path d="M124.526 54.911C122.865 56.3789 120.67 58.6876 119.423 60.2908C118.098 61.9867 116.675 64.2812 116.675 64.7087C116.675 64.8441 117.411 65.6065 118.077 66.1695C120.418 68.1361 123.818 69.0482 127.014 68.5708C129.482 68.2003 131.725 67.0602 133.59 65.236C133.877 64.9581 133.919 64.8797 133.919 64.6232C133.912 63.3121 131.382 60.0628 127.197 55.9941C126.061 54.8896 125.43 54.3267 125.332 54.3267C125.248 54.3267 124.904 54.5761 124.526 54.911Z" fill="#818186"/>
<path d="M35.6935 57.8795V55.6681H38.2209C40.0562 55.6681 41.3725 55.292 42.1698 54.5398C42.9671 53.7877 43.3658 52.8701 43.3658 51.7869C43.3658 50.6036 42.922 49.6633 42.0344 48.9663C41.1469 48.2693 40.0361 47.9209 38.7023 47.9208C36.2251 47.9209 34.5101 49.1193 33.5573 51.5162H31.045C32.4792 47.6551 35.1169 45.7245 38.958 45.7245C41.1142 45.7245 42.8568 46.2986 44.1857 47.4469C45.5145 48.5953 46.1789 49.9767 46.179 51.5914C46.1789 52.845 45.7778 53.9381 44.9754 54.8708C44.1731 55.8035 43.1501 56.3902 41.9066 56.6309C43.3106 56.8315 44.5166 57.4182 45.5245 58.3909C46.5325 59.3637 47.0364 60.6223 47.0364 62.1668C47.0364 64.0021 46.2867 65.549 44.7874 66.8076C43.288 68.0663 41.2296 68.6956 38.612 68.6956C36.546 68.6956 34.7759 68.2041 33.3016 67.2213C31.8273 66.2385 30.4687 63.4171 30.2327 60.7733H32.8202C33.2668 64.2241 35.518 66.4542 38.5669 66.4542C40.5526 66.4542 41.9792 66.0304 42.8468 65.183C43.7143 64.3355 44.148 63.3251 44.1481 62.1517C44.148 60.8781 43.629 59.8476 42.591 59.0604C41.553 58.2731 40.0963 57.8795 38.2209 57.8795H35.6935ZM63.7039 51.3657H61.1766C60.3241 49.1293 58.7696 48.0111 56.5131 48.0111C52.371 48.0111 50.2549 50.806 50.1647 57.5152C50.7965 56.1513 51.7217 55.0983 52.9402 54.3561C54.1587 53.614 55.445 53.243 56.7989 53.243C58.8448 53.243 60.5598 53.9575 61.9438 55.3866C63.3278 56.8157 64.0198 59.088 64.0198 61.0837C64.0198 63.1496 63.2852 64.9347 61.816 66.4391C60.3467 67.9434 58.4637 68.6956 56.1671 68.6956C53.5495 68.6956 51.4685 67.7127 49.924 65.7471C48.3795 63.7814 47.6072 61.1037 47.6072 57.714C47.6072 54.4045 48.3369 51.5789 49.7961 49.2371C51.2553 46.8954 53.5194 45.7245 56.5883 45.7245C60.1085 45.7245 62.4804 47.6049 63.7039 51.3657ZM56.1069 66.4842C57.6714 66.4842 58.9526 65.9678 59.9506 64.9348C60.9484 63.9018 61.4474 62.6632 61.4474 61.2191C61.4474 59.795 60.961 58.0142 59.9881 56.9963C59.0153 55.9784 57.8068 55.4694 56.3626 55.4694C54.8683 55.4694 53.567 56.0034 52.4588 57.0715C51.3506 58.1395 50.7965 59.9504 50.7965 61.3846C50.7965 62.7084 51.2929 63.8893 52.2858 64.9272C53.2787 65.9652 54.5524 66.4842 56.1069 66.4842ZM73.9724 68.6956C71.3247 68.6956 69.2412 67.5924 67.7218 65.3861C66.2023 63.1797 65.4426 60.4418 65.4426 57.1724C65.4426 53.9632 66.1647 51.2529 67.6089 49.0415C69.0531 46.8302 71.1492 45.7245 73.8972 45.7245C76.7655 45.7245 78.9142 46.8779 80.3433 49.1845C81.7725 51.4911 82.487 54.1989 82.4871 57.3078C82.487 60.3466 81.7524 63.0042 80.2832 65.2808C78.8139 67.5573 76.7103 68.6956 73.9724 68.6956ZM73.9874 66.5293C75.9632 66.5293 77.3998 65.6844 78.2974 63.9945C79.195 62.3047 79.6438 60.1861 79.6438 57.6388C79.6438 54.8408 79.185 52.514 78.2673 50.6587C77.3497 48.8034 75.8829 47.8757 73.8671 47.8757C71.9114 47.8757 70.4848 48.7231 69.5872 50.418C68.6896 52.1129 68.2408 54.3393 68.2408 57.0972C68.2408 59.9655 68.7146 62.2546 69.6624 63.9645C70.6101 65.6744 72.0518 66.5293 73.9874 66.5293Z" fill="#818186"/>
<path d="M10.1048 45.8187C9.24956 45.9256 8.149 46.1821 7.45502 46.4529C6.68394 46.745 5.7376 47.2153 5.7376 47.308C5.7376 47.365 5.90584 47.4149 6.17922 47.4434C7.16061 47.5574 8.98318 48.3341 10.6305 49.3245C11.0301 49.5668 11.4226 49.7663 11.4927 49.7663C11.5698 49.7663 11.9554 49.5668 12.3479 49.3245C13.2873 48.7473 14.8364 47.9849 15.5515 47.7426C15.8739 47.6357 16.3786 47.5146 16.6801 47.4647C17.0446 47.4149 17.2338 47.3507 17.2338 47.2937C17.2338 47.0871 15.6005 46.3816 14.4649 46.0966C12.9718 45.719 11.5979 45.6335 10.1048 45.8187Z" fill="#818186"/>
<path d="M3.32619 49.1393C1.45455 51.0774 0.438115 53.1795 0.09463 55.873C-0.0665976 57.1271 -0.0245382 58.1959 0.241838 59.564C0.501204 60.8823 1.09705 62.3644 1.79804 63.4118C2.26069 64.1102 2.3378 64.103 2.39388 63.3548C2.61118 60.5474 4.75621 56.6924 8.32425 52.7306C8.63269 52.3814 8.89205 52.0536 8.89205 52.0109C8.89205 51.9111 7.82655 50.8565 7.04144 50.1725C5.98996 49.2604 4.62302 48.4124 4.22346 48.4124C4.06924 48.4124 3.87297 48.5763 3.32619 49.1393Z" fill="#818186"/>
<path d="M18.2363 48.6191C17.346 49.0537 16.1473 49.9658 14.9907 51.0988C14.528 51.5477 14.1495 51.9681 14.1495 52.0251C14.1495 52.0821 14.493 52.5168 14.9136 52.9942C17.9418 56.4216 19.8625 59.6923 20.4584 62.4285C20.5355 62.7777 20.5986 63.2551 20.5986 63.4974C20.5986 63.8964 20.6126 63.9463 20.7318 63.9463C20.893 63.9463 21.5309 62.9487 21.9305 62.058C22.7436 60.2837 23.031 58.8087 22.9609 56.7708C22.8908 54.4122 22.2599 52.4812 20.9631 50.6285C20.3673 49.7734 19.0564 48.4124 18.8321 48.4124C18.741 48.4124 18.4746 48.5051 18.2363 48.6191Z" fill="#818186"/>
<path d="M10.7146 54.911C9.05328 56.3789 6.85918 58.6876 5.61142 60.2908C4.28655 61.9867 2.86354 64.2812 2.86354 64.7087C2.86354 64.8441 3.59958 65.6065 4.26552 66.1695C6.60683 68.1361 10.0066 69.0482 13.2031 68.5708C15.6706 68.2003 17.9138 67.0602 19.7784 65.236C20.0658 64.9581 20.1079 64.8797 20.1079 64.6232C20.1009 63.3121 17.5703 60.0628 13.3854 55.9941C12.2498 54.8896 11.6189 54.3267 11.5208 54.3267C11.4366 54.3267 11.0932 54.5761 10.7146 54.911Z" fill="#818186"/>
<path d="M263.78 45.7245C264.143 45.7245 264.421 45.858 264.622 46.1251C264.823 46.3827 264.918 46.7548 264.918 47.2317C264.918 47.7278 264.803 48.1284 264.583 48.3955C264.354 48.6722 264.029 48.8153 263.617 48.8153H263.608V48.1189H263.617C263.876 48.1189 264.067 48.033 264.182 47.89C264.296 47.7373 264.354 47.5084 264.354 47.2127C264.354 46.9742 264.306 46.7834 264.22 46.6594C264.134 46.5353 264 46.4686 263.828 46.4686C263.684 46.4686 263.579 46.5258 263.503 46.6307C263.426 46.7357 263.359 46.936 263.302 47.2222L263.235 47.537C263.158 47.9281 263.024 48.2334 262.843 48.4337C262.651 48.634 262.412 48.7294 262.106 48.7294C261.791 48.7294 261.532 48.6054 261.341 48.3669C261.15 48.1284 261.054 47.785 261.054 47.3557C261.054 46.8692 261.159 46.4972 261.37 46.2492C261.58 46.0011 261.877 45.8676 262.25 45.8485H262.259V46.5354H262.25C262.039 46.5449 261.886 46.6212 261.791 46.7452C261.695 46.8692 261.638 47.0696 261.638 47.3462C261.638 47.5561 261.676 47.7183 261.752 47.8327C261.829 47.9472 261.944 48.0044 262.087 48.0044C262.231 48.0044 262.345 47.9567 262.422 47.8518C262.498 47.7469 262.565 47.5561 262.623 47.289L262.69 46.9646C262.776 46.5353 262.91 46.2205 263.082 46.0298C263.235 45.8294 263.474 45.7245 263.78 45.7245ZM263.063 65.9005C262.891 66.0913 262.757 66.4061 262.671 66.8354L262.604 67.1597C262.546 67.4268 262.479 67.6176 262.403 67.7225C262.326 67.8275 262.211 67.8752 262.068 67.8752C261.925 67.8752 261.81 67.8179 261.733 67.7035C261.657 67.589 261.618 67.4268 261.618 67.217C261.618 66.9403 261.666 66.74 261.771 66.616C261.867 66.492 262.03 66.4252 262.231 66.4061H262.24V65.7192H262.231C261.858 65.7288 261.561 65.8719 261.351 66.1199C261.14 66.3679 261.035 66.74 261.035 67.2265C261.035 67.6558 261.131 67.9896 261.322 68.2377C261.513 68.4762 261.771 68.6002 262.087 68.6002C262.384 68.6002 262.632 68.4952 262.824 68.3044C263.015 68.1041 263.139 67.8084 263.216 67.4077L263.283 67.0929C263.34 66.8067 263.407 66.6064 263.484 66.5015C263.56 66.3965 263.665 66.3393 263.809 66.3393C263.981 66.3393 264.115 66.4061 264.201 66.5301C264.287 66.6541 264.335 66.8449 264.335 67.0834C264.335 67.3791 264.277 67.6081 264.163 67.7607C264.048 67.9133 263.857 67.9896 263.598 67.9896H263.589V68.686H263.598C264.019 68.686 264.344 68.5429 264.564 68.2663C264.794 67.9896 264.899 67.5985 264.899 67.1025C264.899 66.635 264.794 66.263 264.603 65.9959C264.402 65.7288 264.115 65.5952 263.761 65.5952C263.474 65.6143 263.235 65.7097 263.063 65.9005ZM264.832 56.8857V57.6202C264.727 57.687 264.574 57.7156 264.392 57.7156L263.99 57.7347C263.77 57.7442 263.608 57.7919 263.522 57.8873C263.436 57.9732 263.388 58.1258 263.388 58.3261V59.2324H264.832V59.9383H261.121V58.2594C261.121 58.1735 261.121 58.0972 261.131 58.0209C261.131 58.0495 261.131 58.0686 261.131 58.0972C261.15 57.811 261.217 57.5725 261.341 57.3913C261.332 57.4008 261.322 57.4199 261.312 57.4294C261.341 57.3817 261.37 57.3436 261.398 57.3054C261.59 57.0765 261.848 56.962 262.164 56.962C262.604 56.962 262.9 57.1623 263.044 57.563C263.101 57.3817 263.197 57.2482 263.321 57.1719C263.445 57.086 263.617 57.0479 263.837 57.0383L264.392 57.0097C264.574 57.0002 264.717 56.962 264.832 56.8857ZM262.25 57.687C262.078 57.687 261.944 57.7442 261.848 57.8492C261.752 57.9636 261.705 58.1163 261.705 58.3261V59.2324H262.824V58.3071C262.824 58.1163 262.776 57.9636 262.68 57.8492C262.584 57.7347 262.441 57.687 262.25 57.687ZM261.121 55.3975H264.832V54.6916H261.121V55.3975ZM261.762 50.2367H261.121V52.965H264.832V50.2367H264.191V52.259H263.244V50.4275H262.632V52.259H261.762V50.2367ZM261.762 61.4551H261.121V64.1929H264.832V61.4646H264.191V63.487H263.244V61.6554H262.632V63.487H261.762V61.4551ZM266.448 68.6956H271.374L275.114 63.5633L272.656 60.1863L266.448 68.6956ZM288.026 45.839H283.1L280.039 50.0363L282.497 53.4133L288.026 45.839ZM272.053 45.839H267.128L283.779 68.6956H288.705L272.053 45.839Z" fill="#818186"/>
<path d="M242.948 45.8187C242.093 45.9256 240.992 46.1821 240.298 46.4529C239.527 46.745 238.581 47.2153 238.581 47.308C238.581 47.365 238.749 47.4149 239.022 47.4434C240.004 47.5574 241.826 48.3341 243.474 49.3245C243.873 49.5668 244.266 49.7663 244.336 49.7663C244.413 49.7663 244.799 49.5668 245.191 49.3245C246.131 48.7473 247.68 47.9849 248.395 47.7426C248.717 47.6357 249.222 47.5146 249.523 47.4647C249.888 47.4149 250.077 47.3507 250.077 47.2937C250.077 47.0871 248.444 46.3816 247.308 46.0966C245.815 45.719 244.441 45.6335 242.948 45.8187Z" fill="#818186"/>
<path d="M236.169 49.1393C234.298 51.0774 233.281 53.1795 232.938 55.873C232.777 57.1271 232.819 58.1959 233.085 59.564C233.344 60.8823 233.94 62.3644 234.641 63.4118C235.104 64.1102 235.181 64.103 235.237 63.3548C235.454 60.5474 237.599 56.6924 241.168 52.7306C241.476 52.3814 241.735 52.0536 241.735 52.0109C241.735 51.9111 240.67 50.8565 239.885 50.1725C238.833 49.2604 237.466 48.4124 237.067 48.4124C236.913 48.4124 236.716 48.5763 236.169 49.1393Z" fill="#818186"/>
<path d="M251.08 48.6191C250.189 49.0537 248.991 49.9658 247.834 51.0988C247.371 51.5477 246.993 51.9681 246.993 52.0251C246.993 52.0821 247.336 52.5168 247.757 52.9942C250.785 56.4216 252.706 59.6923 253.302 62.4285C253.379 62.7777 253.442 63.2551 253.442 63.4974C253.442 63.8964 253.456 63.9463 253.575 63.9463C253.736 63.9463 254.374 62.9487 254.774 62.058C255.587 60.2837 255.874 58.8087 255.804 56.7708C255.734 54.4122 255.103 52.4812 253.806 50.6285C253.211 49.7734 251.9 48.4124 251.675 48.4124C251.584 48.4124 251.318 48.5051 251.08 48.6191Z" fill="#818186"/>
<path d="M243.558 54.911C241.897 56.3789 239.702 58.6876 238.455 60.2908C237.13 61.9867 235.707 64.2812 235.707 64.7087C235.707 64.8441 236.443 65.6065 237.109 66.1695C239.45 68.1361 242.85 69.0482 246.046 68.5708C248.514 68.2003 250.757 67.0602 252.622 65.236C252.909 64.9581 252.951 64.8797 252.951 64.6232C252.944 63.3121 250.414 60.0628 246.229 55.9941C245.093 54.8896 244.462 54.3267 244.364 54.3267C244.28 54.3267 243.936 54.5761 243.558 54.911Z" fill="#818186"/>
<path d="M320.029 65.5345L329.444 66.832V57.8452H320.029V65.5345Z" fill="#818186"/>
<path d="M320.029 56.6855H329.444V47.5882L320.029 48.8857V56.6855Z" fill="#818186"/>
<path d="M330.479 66.9702L343 68.6956V57.8452L330.479 57.845V66.9702Z" fill="#818186"/>
<path d="M330.479 47.4501V56.6855H343V45.7245L330.479 47.4501Z" fill="#818186"/>
</svg>
