<svg width="72" height="86" viewBox="0 0 72 86" fill="none" xmlns="http://www.w3.org/2000/svg">
<path d="M0.252319 37.348L34.5962 85.9028L34.6933 85.6562L16.8884 40.6747L0.252319 37.348Z" fill="#333335"/>
<path d="M37.3068 85.6562L37.4039 85.9028L71.7478 37.348L55.1117 40.6747L37.3068 85.6562Z" fill="#333335"/>
<g opacity="0.2">
<path d="M24.0172 9.81431L12.2578 4.69427L4.5 21.3194L19.3607 24.7154L24.0172 9.81431Z" fill="#8E8E93"/>
<path d="M26.118 10.3175L21.5614 24.8978H50.5374L46.893 10.3175H26.118Z" fill="#8E8E93"/>
<path d="M52.7 24.702L67.5 21.3194L59.8794 4.98945L48.9832 9.83384L52.7 24.702Z" fill="#8E8E93"/>
<path d="M47.4947 7.88743L58.4314 3.02739L47.903 0.621638C47.8339 0.605833 47.7649 0.59729 47.6947 0.59729H25.3686C25.3049 0.59729 25.2411 0.604552 25.1784 0.617936L14.1365 2.91191L25.5642 7.88743H47.4947Z" fill="#8E8E93"/>
</g>
<g opacity="0.4">
<path d="M23.1613 16.5643L10.5619 11.4443L2.25 28.0694L18.1721 31.4654L23.1613 16.5643Z" fill="#8E8E93"/>
<path d="M25.4122 17.0675L20.53 31.6478H51.5758L47.6711 17.0675H25.4122Z" fill="#8E8E93"/>
<path d="M53.8929 31.452L69.75 28.0694L61.585 11.7395L49.9106 16.5838L53.8929 31.452Z" fill="#8E8E93"/>
<path d="M48.3158 14.6374L60.0336 9.77739L48.7532 7.37164C48.6791 7.35583 48.6052 7.34729 48.53 7.34729H24.6093C24.5409 7.34729 24.4726 7.35455 24.4054 7.36794L12.5748 9.66191L24.8188 14.6374H48.3158Z" fill="#8E8E93"/>
</g>
<path d="M22.3054 23.3143L8.86607 18.1943L0 34.8194L16.9836 38.2154L22.3054 23.3143Z" fill="#8E8E93"/>
<path d="M24.7063 23.8175L19.4987 38.3978H52.6142L48.4491 23.8175H24.7063Z" fill="#8E8E93"/>
<path d="M55.0857 38.202L72 34.8194L63.2907 18.4895L50.8379 23.3338L55.0857 38.202Z" fill="#8E8E93"/>
<path d="M49.1369 21.3874L61.6359 16.5274L49.6034 14.1216C49.5244 14.1058 49.4455 14.0973 49.3654 14.0973H23.8499C23.777 14.0973 23.7041 14.1046 23.6325 14.1179L11.0131 16.4119L24.0734 21.3874H49.1369Z" fill="#8E8E93"/>
<path d="M19.5618 40.8278L35.9998 82.3549L52.4379 40.8278H19.5618Z" fill="#333335"/>
</svg>
