<svg width="24" height="24" viewBox="0 0 24 24" fill="none" xmlns="http://www.w3.org/2000/svg">
<g clip-path="url(#clip0)">
<path d="M3.58 21.196H17.839L17.158 18.991C17.259 19.079 23 24 23 24V2.475C22.932 1.137 21.78 0 20.352 0L3.585 0.003C2.158 0.003 1 1.142 1 2.48V18.72C1 20.131 2.156 21.196 3.58 21.196ZM14.128 5.683L14.095 5.695L14.107 5.683H14.128ZM6.497 6.952C8.33 5.618 10.029 5.682 10.029 5.682L10.166 5.817C7.923 6.352 6.906 7.354 6.906 7.354C7.01 7.332 11.539 4.719 17.027 7.42C17.027 7.42 16.008 6.483 13.903 5.883L14.089 5.7C14.38 5.701 15.92 5.755 17.568 6.96C17.568 6.96 19.412 10.11 19.412 13.98C19.351 13.906 18.268 15.646 15.481 15.706C15.481 15.706 15.009 15.172 14.673 14.706C16.303 14.238 16.913 13.302 16.913 13.302C13.74 15.3 10.959 14.988 7.632 13.638C7.601 13.638 7.587 13.624 7.571 13.608V13.602C7.555 13.587 7.541 13.572 7.51 13.572H7.45C7.246 13.438 7.11 13.372 7.11 13.372C7.11 13.372 7.719 14.308 9.284 14.776C8.873 15.245 8.466 15.778 8.466 15.778C5.68 15.712 4.664 13.972 4.664 13.972C4.664 10.096 6.497 6.952 6.497 6.952Z" fill="white" fill-opacity="0.51"/>
<path d="M14.3079 12.7709C15.0189 12.7709 15.5979 12.1709 15.5979 11.4309C15.5979 10.6959 15.0219 10.0959 14.3079 10.0959V10.0989C13.5999 10.0989 13.0199 10.6969 13.0179 11.4369C13.0179 12.1709 13.5969 12.7709 14.3079 12.7709Z" fill="white" fill-opacity="0.51"/>
<path d="M9.69002 12.7709C10.401 12.7709 10.98 12.1709 10.98 11.4309C10.98 10.6959 10.405 10.0959 9.69402 10.0959L9.69002 10.0989C8.97902 10.0989 8.40002 10.6969 8.40002 11.4369C8.40002 12.1709 8.97902 12.7709 9.69002 12.7709Z" fill="white" fill-opacity="0.51"/>
</g>
<defs>
<clipPath id="clip0">
<rect width="24" height="24" fill="white"/>
</clipPath>
</defs>
</svg>
