<svg width="72" height="76" viewBox="0 0 72 76" fill="none" xmlns="http://www.w3.org/2000/svg">
<path d="M66.923 51.108C66.2058 50.3695 65.3333 50 64.3082 50H46.4614L41.2307 55.3813C39.7435 56.8584 38 57.5972 36 57.5972C34.0004 57.5972 32.2564 56.8593 30.7693 55.3813L25.577 50H7.69228C6.66683 50 5.79509 50.3699 5.07692 51.108C4.3589 51.8464 4.00002 52.7434 4.00002 53.7991L3.99988 66.2019C3.99988 67.2572 4.35876 68.154 5.07679 68.8926C5.79482 69.6311 6.66656 70 7.69214 70H64.3082C65.3333 70 66.2057 69.6311 66.923 68.8926C67.6413 68.154 67.9999 67.2572 67.9999 66.2019L68 53.7991C68 52.7434 67.6414 51.8464 66.923 51.108ZM52.5007 64.443C52.0129 64.9443 51.4358 65.1947 50.7691 65.1947C50.1024 65.1947 49.526 64.9443 49.0384 64.443C48.5515 63.9417 48.3081 63.3483 48.3081 62.6628C48.3081 61.977 48.5515 61.3827 49.0384 60.8823C49.526 60.3805 50.1024 60.1295 50.7691 60.1295C51.4358 60.1295 52.0127 60.3805 52.5007 60.8823C52.9874 61.3826 53.231 61.9769 53.231 62.6628C53.231 63.3482 52.9874 63.9417 52.5007 64.443ZM62.3462 64.443C61.8593 64.9443 61.2822 65.1947 60.6154 65.1947C59.9488 65.1947 59.3721 64.9443 58.8847 64.443C58.398 63.9417 58.1545 63.3483 58.1545 62.6628C58.1545 61.977 58.398 61.3827 58.8847 60.8823C59.3719 60.3805 59.9487 60.1295 60.6154 60.1295C61.2821 60.1295 61.8592 60.3805 62.3462 60.8823C62.8334 61.3826 63.0773 61.9769 63.0773 62.6628C63.0773 63.3482 62.8338 63.9417 62.3462 64.443Z" fill="#333335"/>
<path opacity="0.2" d="M34.6844 39.3019C35.0355 39.7672 35.474 40 36.0001 40C36.5266 40 36.9646 39.7672 37.3157 39.3019L50.4146 22.8311C51.0187 22.1205 51.1554 21.2625 50.8239 20.2575C50.4932 19.3019 49.9179 18.8241 49.099 18.8236H41.6138V2.35302C41.6138 1.71587 41.4283 1.16434 41.0586 0.698709C40.6879 0.232946 40.2495 0 39.7429 0H32.2572C31.7507 0 31.3121 0.232946 30.9416 0.698709C30.5714 1.16434 30.3861 1.71574 30.3861 2.35302V18.8237H22.9011C22.0821 18.8237 21.5073 19.3021 21.1759 20.2577C20.8448 21.2622 20.9811 22.1206 21.5855 22.8313L34.6844 39.3019Z" fill="#8E8E93"/>
<path opacity="0.4" d="M34.4213 44.3019C34.8426 44.7672 35.3688 45 36.0001 45C36.6319 45 37.1575 44.7672 37.5789 44.3019L53.2975 27.8311C54.0225 27.1205 54.1865 26.2625 53.7887 25.2575C53.3918 24.3019 52.7015 23.8241 51.7187 23.8236H42.7365V7.35302C42.7365 6.71587 42.514 6.16434 42.0703 5.69871C41.6255 5.23295 41.0994 5 40.4915 5H31.5087C30.9009 5 30.3745 5.23295 29.9299 5.69871C29.4857 6.16434 29.2633 6.71574 29.2633 7.35302V23.8237H20.2814C19.2985 23.8237 18.6088 24.3021 18.2111 25.2577C17.8137 26.2622 17.9773 27.1206 18.7026 27.8313L34.4213 44.3019Z" fill="#8E8E93"/>
<path d="M34.2459 49.3019C34.714 49.7672 35.2987 50 36.0001 50C36.7021 50 37.2861 49.7672 37.7543 49.3019L55.2195 32.8311C56.025 32.1205 56.2072 31.2625 55.7652 30.2575C55.3242 29.3019 54.5572 28.8241 53.4653 28.8236H43.485V12.353C43.485 11.7159 43.2377 11.1643 42.7448 10.6987C42.2505 10.2329 41.666 10 40.9906 10H31.0097C30.3343 10 29.7495 10.2329 29.2554 10.6987C28.7618 11.1643 28.5148 11.7157 28.5148 12.353V28.8237H18.5348C17.4427 28.8237 16.6765 29.3021 16.2346 30.2577C15.793 31.2622 15.9747 32.1206 16.7806 32.8313L34.2459 49.3019Z" fill="#8E8E93"/>
</svg>
