<svg width="32" height="43" viewBox="0 0 32 43" fill="none" xmlns="http://www.w3.org/2000/svg">
<path d="M25.8515 23.338C25.7934 23.2354 25.709 23.1501 25.6071 23.0907C25.5053 23.0313 25.3894 23 25.2715 23H16.5382L18.0023 11.8129C18.018 11.6631 17.9829 11.5125 17.9026 11.3852C17.8223 11.2578 17.7014 11.1612 17.5595 11.1109C17.4177 11.0606 17.263 11.0595 17.1204 11.1078C16.9778 11.1561 16.8556 11.251 16.7735 11.3772L6.15283 29.9842C6.09072 30.0852 6.05668 30.201 6.05422 30.3195C6.05176 30.4381 6.08096 30.5551 6.13882 30.6586C6.19668 30.7622 6.2811 30.8484 6.38338 30.9084C6.48565 30.9684 6.60208 31 6.72066 31H15.3235L14.1632 42.204C14.1518 42.3532 14.1906 42.502 14.2735 42.6266C14.3563 42.7512 14.4785 42.8445 14.6205 42.8916C14.7625 42.9388 14.9162 42.9371 15.0572 42.8868C15.1981 42.8365 15.3182 42.7406 15.3983 42.6142L25.8435 24.0092C25.9041 23.908 25.9367 23.7926 25.9381 23.6747C25.9395 23.5568 25.9096 23.4406 25.8515 23.338Z" fill="#404042"/>
<path opacity="0.4" d="M25.8515 18.338C25.7934 18.2354 25.709 18.1501 25.6071 18.0907C25.5053 18.0313 25.3894 18 25.2715 18H16.5382L18.0023 6.81286C18.018 6.66314 17.9829 6.51248 17.9026 6.38516C17.8223 6.25783 17.7014 6.16124 17.5595 6.11093C17.4177 6.06062 17.263 6.05953 17.1204 6.10783C16.9778 6.15613 16.8556 6.25101 16.7735 6.37719L6.15283 24.9842C6.09072 25.0852 6.05668 25.201 6.05422 25.3195C6.05176 25.4381 6.08096 25.5551 6.13882 25.6586C6.19668 25.7622 6.2811 25.8484 6.38338 25.9084C6.48565 25.9684 6.60208 26 6.72066 26H15.3235L14.1632 37.204C14.1518 37.3532 14.1906 37.502 14.2735 37.6266C14.3563 37.7512 14.4785 37.8445 14.6205 37.8916C14.7625 37.9388 14.9162 37.9371 15.0572 37.8868C15.1981 37.8365 15.3182 37.7406 15.3983 37.6142L25.8435 19.0092C25.9041 18.908 25.9367 18.7926 25.9381 18.6747C25.9395 18.5568 25.9096 18.4406 25.8515 18.338Z" fill="#404042"/>
<path opacity="0.2" d="M25.8515 12.338C25.7934 12.2354 25.709 12.1501 25.6071 12.0907C25.5053 12.0313 25.3894 12 25.2715 12H16.5382L18.0023 0.81286C18.018 0.663137 17.9829 0.512484 17.9026 0.385156C17.8223 0.257828 17.7014 0.161235 17.5595 0.11093C17.4177 0.0606242 17.263 0.0595333 17.1204 0.107833C16.9778 0.156132 16.8556 0.251011 16.7735 0.377193L6.15283 18.9842C6.09072 19.0852 6.05668 19.201 6.05422 19.3195C6.05176 19.4381 6.08096 19.5551 6.13882 19.6586C6.19668 19.7622 6.2811 19.8484 6.38338 19.9084C6.48565 19.9684 6.60208 20 6.72066 20H15.3235L14.1632 31.204C14.1518 31.3532 14.1906 31.502 14.2735 31.6266C14.3563 31.7512 14.4785 31.8445 14.6205 31.8916C14.7625 31.9388 14.9162 31.9371 15.0572 31.8868C15.1981 31.8365 15.3182 31.7406 15.3983 31.6142L25.8435 13.0092C25.9041 12.908 25.9367 12.7926 25.9381 12.6747C25.9395 12.5568 25.9096 12.4406 25.8515 12.338Z" fill="#404042"/>
</svg>
