<svg width="72" height="72" viewBox="0 0 72 72" fill="none" xmlns="http://www.w3.org/2000/svg">
<path d="M35.6171 43.631C34.5209 43.631 32.9044 43.5026 31.4214 42.8999L19.5579 38.0609H13.7464V45.5975C13.7464 47.9148 15.3747 50.5455 17.3818 51.4693L31.7471 58.0899C33.7542 59.0121 37.0125 59.0161 39.0217 58.0989L53.5436 51.4588C55.5514 50.5415 57.1803 47.9148 57.1803 45.5975V38.0609H50.7672L40.2545 42.7535C38.9899 43.3192 37.3412 43.631 35.6171 43.631Z" fill="#333335"/>
<path opacity="0.2" d="M7.3483 16.2216L32.59 27.8929C34.3935 28.7247 37.2966 28.6705 39.0767 27.77L63.1828 15.576V33.5665L61.6938 39.53H66.0003L64.4597 33.5045V14.8488H64.4163C65.4569 13.987 65.2143 12.9131 63.6736 12.2519L39.149 1.77949C37.3291 1.00064 34.3891 1.03362 32.5805 1.84871L7.35955 13.2346C5.55089 14.0512 5.54651 15.389 7.3483 16.2216Z" fill="#8E8E93"/>
<path opacity="0.4" d="M5.43819 22.2216L32.3627 33.8929C34.2864 34.7247 37.383 34.6705 39.2818 33.77L64.995 21.576V39.5665L63.4067 45.53H68.0003L66.3569 39.5045V20.8488H66.3107C67.4206 19.987 67.1619 18.9131 65.5185 18.2519L39.3589 7.77949C37.4177 7.00064 34.2817 7.03362 32.3525 7.84871L5.45018 19.2346C3.52095 20.0512 3.51628 21.389 5.43819 22.2216Z" fill="#8E8E93"/>
<path d="M3.52808 28.2216L32.1354 39.8929C34.1793 40.7247 37.4695 40.6705 39.4869 39.77L66.8071 27.576V45.5665L65.1196 51.53H70.0003L68.2542 45.5045V26.8488H68.2051C69.3844 25.987 69.1095 24.9131 67.3634 24.2519L39.5688 13.7795C37.5063 13.0006 34.1743 13.0336 32.1245 13.8487L3.54082 25.2346C1.491 26.0512 1.48605 27.389 3.52808 28.2216Z" fill="#8E8E93"/>
</svg>
