<svg width="24" height="24" viewBox="0 0 24 24" fill="none" xmlns="http://www.w3.org/2000/svg">
<path d="M9.48726 16.0945C10.0249 16.6321 11.1768 16.824 11.9976 16.824C12.8209 16.824 13.9704 16.6321 14.508 16.0945C14.6353 15.9672 14.8392 15.9672 14.9663 16.0945C15.0936 16.2217 15.0936 16.4257 14.9663 16.5528C14.1143 17.4048 12.4776 17.472 11.9976 17.472C11.5177 17.472 9.88332 17.4048 9.02876 16.5528C8.90407 16.4255 8.90407 16.2215 9.02876 16.0945C9.15602 15.9672 9.36 15.9672 9.48726 16.0945Z" fill="white" fill-opacity="0.51"/>
<path d="M13.5 13.2504C13.5 12.5616 14.0616 12 14.7504 12C15.4391 12 16.0009 12.5616 16.0009 13.2504C16.0009 13.9391 15.4391 14.5009 14.7504 14.5009C14.0616 14.5009 13.5 13.9393 13.5 13.2504Z" fill="white" fill-opacity="0.51"/>
<path d="M12 0C18.6264 0 24 5.3736 24 12C24 18.6264 18.6264 24 12 24C5.3736 24 0 18.6264 0 12C0 5.3736 5.3736 0 12 0ZM5.0376 13.6007C5.01123 13.7736 4.99677 13.9488 4.99677 14.1264C4.99677 16.8192 8.13116 19.0009 11.9976 19.0009C15.8641 19.0009 18.9985 16.8192 18.9985 14.1264C18.9985 13.9464 18.984 13.7688 18.9576 13.5959C19.5672 13.3224 19.992 12.7104 19.992 12C19.992 11.0352 19.2096 10.2504 18.2424 10.2504C17.772 10.2504 17.3472 10.4352 17.0328 10.7377C15.8185 9.86169 14.1383 9.30231 12.2688 9.25433C12.2688 9.23035 11.3952 5.06873 11.3952 5.06873C11.3784 4.98724 11.3304 4.91748 11.2608 4.87207C11.1912 4.82648 11.1072 4.81201 11.0255 4.82886L8.1167 5.44794C7.91272 5.03522 7.49286 4.74957 7.00085 4.74957C6.30963 4.74957 5.75043 5.30878 5.75043 6C5.75043 6.69122 6.30963 7.25043 7.00085 7.25043C7.67047 7.25043 8.21283 6.72235 8.24396 6.06006L10.8481 5.50562L11.6448 9.2569C9.80878 9.32153 8.15991 9.87836 6.96478 10.7424C6.65039 10.4377 6.22321 10.2504 5.75043 10.2504C4.78308 10.2504 4.00085 11.0328 4.00085 12C4.00085 12.7152 4.43042 13.3271 5.0376 13.6007Z" fill="white" fill-opacity="0.51"/>
<path d="M9.24957 12C9.93842 12 10.5 12.5616 10.5 13.2504C10.5 13.9391 9.93842 14.5009 9.24957 14.5009C8.56091 14.5009 7.99915 13.9391 7.99915 13.2504C7.99915 12.5616 8.56073 12 9.24957 12Z" fill="white" fill-opacity="0.51"/>
</svg>
